# xmcd
#
# Track frame offsets:
#	150
#	17798
#	31841
#	48262
#	64009
#	79258
#	100454
#	119952
#	134912
#	150590
#	167405
#	186851
#	202131
#
# Disc length: 2915 seconds
#
# Revision: 0
# Processed by: cddbd v1.5.2PL0 Copyright (c) Steve Scherf et al.
# Submitted via: EasyCDDAExtractor 12.1.0.1
#
DISCID=ba0b610d
DTITLE=Michel Louvain - Gentleman Crooner
DYEAR=2015
DGENRE=Chanson quebecoise
TTITLE0=Hey crooner (avec Tocadeo)
TTITLE1=L'etranger au paradis
TTITLE2=Petite fleur
TTITLE3=Et maintenant si on dansait (avec Ginette Reno)
TTITLE4=Everybody Love Somebody Sometime
TTITLE5=C'est le printemps
TTITLE6=C'est impossible
TTITLE7=La memoire du coeur
TTITLE8=La belle vie
TTITLE9=Verte campagne
TTITLE10=C'est mon coeur qui chante clair
TTITLE11=L'un sans l'autre
TTITLE12=Comme Vous (en supplement)
EXTD=
EXTT0=
EXTT1=
EXTT2=
EXTT3=
EXTT4=
EXTT5=
EXTT6=
EXTT7=
EXTT8=
EXTT9=
EXTT10=
EXTT11=
EXTT12=
PLAYORDER=
